<svg xmlns="http://www.w3.org/2000/svg" viewBox="0 0 185 40"><g fill="none" fill-rule="evenodd"><rect width="185" height="40" fill="#FFF" rx="2"/><path fill="#1343DE" fill-rule="nonzero" d="M52.156 25l.056-.056v-1.512l-.056-.07h-4.214v-8.106l-.056-.056h-1.512l-.056.056v9.688l.056.056h5.782zm4.42.21c1.96 0 3.5-1.54 3.5-3.5s-1.54-3.5-3.5-3.5-3.5 1.54-3.5 3.5 1.54 3.5 3.5 3.5zm0-1.568c-1.078 0-1.834-.812-1.834-1.932 0-1.12.756-1.932 1.834-1.932 1.064 0 1.82.812 1.82 1.932 0 1.12-.756 1.932-1.82 1.932zm7.68 5.068c2.044 0 3.486-1.19 3.486-3.486V18.49l-.07-.07h-1.498l-.07.07v.21c-.434-.28-1.05-.49-1.68-.49-1.946 0-3.444 1.554-3.444 3.5s1.498 3.5 3.444 3.5c.63 0 1.246-.21 1.68-.49v.322c0 1.526-.588 2.1-1.848 2.1-.854 0-1.526-.644-1.764-1.288h-.14l-1.204.588-.07.14c.35 1.176 1.61 2.128 3.178 2.128zm.224-5.068c-1.05 0-1.82-.826-1.82-1.932 0-1.106.77-1.932 1.82-1.932.602 0 1.162.28 1.624.756v2.352c-.462.546-1.022.756-1.624.756zm10.024-5.852l1.022-1.022v-.14l-1.022-1.008h-.14l-1.022 1.008v.14l1.022 1.022h.14zm.672 7.21l.07-.07v-6.44l-.07-.07h-1.484l-.07.07v6.44l.07.07h1.484zm3.34 0l.07-.07v-4.452c.378-.434 1.022-.7 1.666-.7 1.05 0 1.61.574 1.61 1.694v3.458l.07.07h1.484l.07-.07v-3.64c0-1.89-1.05-3.08-3.15-3.08-.63 0-1.26.21-1.75.49v-.21l-.07-.07h-1.484l-.07.07v6.44l.07.07h1.484zm13.986 0l.07-.07 1.316-3.43 1.316 3.43.07.07h1.428l.07-.07 2.632-6.44-.056-.07h-1.666l-.07.07-1.624 4.256-1.386-3.976-.07-.07h-1.288l-.07.07-1.386 3.976-1.61-4.256-.07-.07h-1.666l-.07.07 2.632 6.44.07.07h1.428zm8.632-7.21l1.022-1.022v-.14l-1.022-1.008h-.14l-1.022 1.008v.14l1.022 1.022h.14zm.672 7.21l.07-.07v-6.44l-.07-.07h-1.484l-.07.07v6.44l.07.07h1.484zm4.936.21c.448 0 1.162-.196 1.54-.42v-1.568l-.07-.07c-.546.392-1.078.49-1.47.49-.56 0-1.05-.364-1.05-1.484v-2.1h2.52l.07-.07V18.49l-.07-.07h-2.52v-1.596l-.07-.084h-1.498l-.07.07v1.61h-1.12l-.07.07v1.498l.07.07h1.12v2.24c0 1.82.91 2.912 2.688 2.912zm4.182-.21l.07-.07v-4.452c.378-.434 1.022-.7 1.666-.7 1.05 0 1.61.574 1.61 1.694v3.458l.07.07h1.484l.07-.07v-3.64c0-1.89-1.05-3.08-3.15-3.08-.63 0-1.26.21-1.75.49v-3.43l-.07-.07h-1.484l-.07.07v9.66l.07.07h1.484zm14.896.21c2.38 0 4.34-1.68 4.34-4.55v-5.39l-.07-.07h-1.82l-.07.07v5.11c0 1.89-1.05 2.8-2.38 2.8-1.33 0-2.38-.91-2.38-2.8v-5.11l-.07-.07h-1.82l-.07.07v5.39c0 2.87 1.96 4.55 4.34 4.55zm7.61-.21l.07-.07v-6.37l4.9 6.37.14.07h1.89l.07-.07v-9.66l-.07-.07h-1.82l-.07.07v6.37l-4.9-6.37-.14-.07h-1.89l-.07.07v9.66l.07.07h1.82zm9.7-7.21l1.26-1.26v-.14l-1.26-1.26h-.14l-1.26 1.26v.14l1.26 1.26h.14zm.84 7.21l.07-.07v-6.44l-.07-.07h-1.82l-.07.07v6.44l.07.07h1.82zm5.01 0c3.01 0 5.18-2.198 5.18-4.9 0-2.702-2.17-4.9-5.18-4.9h-3.29l-.07.07v9.66l.07.07h3.29zm0-1.96h-1.4v-5.88h1.4c1.82 0 3.08 1.19 3.08 2.94s-1.26 2.94-3.08 2.94zm7.56 1.96l.07-.07.7-1.96h3.5l.7 1.96.07.07h2.17l.07-.07-3.71-9.66-.07-.07h-1.96l-.07.07-3.71 9.66.07.07h2.17zm3.64-3.99h-2.24l1.12-3.29 1.12 3.29zm7.49 3.99l.07-.07v-4.34l3.36-5.32-.07-.07h-1.96l-.07.07-2.24 3.29-2.24-3.29-.07-.07h-1.96l-.07.07 3.36 5.32v4.34l.07.07h1.82zm6.48.21c1.89 0 3.29-1.47 3.29-3.15 0-3.22-4.13-3.22-4.13-4.34 0-.42.21-.7.7-.7.35 0 .77.21 1.078.63h.14l1.512-1.12c-.77-1.05-1.54-1.54-2.73-1.54-1.554 0-2.8 1.12-2.8 2.73 0 2.73 4.13 2.66 4.13 4.34 0 .7-.49 1.12-1.19 1.12-.56 0-1.19-.28-1.54-1.218h-.14l-1.61 1.078c.49 1.4 1.82 2.17 3.29 2.17zM19.3214286 31.45c5.1 0 9.3-3.6 9.3-9.75V10.15l-.15-.15h-3.9l-.15.15V21.1c0 4.05-2.25 6-5.1 6-2.85 0-5.1-1.95-5.1-6V10.15l-.15-.15h-3.9l-.15.15V21.7c0 6.15 4.2 9.75 9.3 9.75z"/></g></svg>